<svg id="Layer_1" data-name="Layer 1" xmlns="http://www.w3.org/2000/svg" xmlns:xlink="http://www.w3.org/1999/xlink" viewBox="0 0 332.94 499.54"><defs><style>.cls-1{fill:none;stroke:#000;stroke-miterlimit:10;}.cls-2{clip-path:url(#clip-path);}</style><clipPath id="clip-path"><path class="cls-1" d="M98.62,18.44C-20.54,74.07-10.25,152.36,32.64,211s22.27,116.14,5,127.64S6.25,393,17.79,432.76s48.66,19.88,62.68,32.43,55.26-39.76,64.33-7.32-5.77,45,48.66,34.53,89.9-26.16,99-48.13S351.82,348,316.35,315.58s-34.64-60.69-14.84-76.38,36.28-64.87,22.26-78.47-27.21-31.39-19-63.82S201.71-29.69,98.62,18.44Z"/></clipPath></defs><g class="cls-2"><image width="1365" height="2048" transform="scale(0.24)" xlink:href="coffee-image-poster-1.jpg"/></g><path class="cls-1" d="M98.62,18.44C-20.54,74.07-10.25,152.36,32.64,211s22.27,116.14,5,127.64S6.25,393,17.79,432.76s48.66,19.88,62.68,32.43,55.26-39.76,64.33-7.32-5.77,45,48.66,34.53,89.9-26.16,99-48.13S351.82,348,316.35,315.58s-34.64-60.69-14.84-76.38,36.28-64.87,22.26-78.47-27.21-31.39-19-63.82S201.71-29.69,98.62,18.44Z"/></svg>